<svg xmlns="http://www.w3.org/2000/svg" width="40" height="40" viewBox="0 0 40 40"><defs><style>.a{fill:#a27035;}</style></defs><g transform="translate(-0.076)"><g transform="translate(0.076)"><circle class="a" cx="3.137" cy="3.137" r="3.137" transform="translate(16.863 17.333)"/><path class="a" d="M30.676,19.2H21.649a4.485,4.485,0,0,0-3.2,1.149,4.485,4.485,0,0,0-1.149,3.2v9.027a4.523,4.523,0,0,0,1.231,3.282,4.626,4.626,0,0,0,3.2,1.149h8.945a4.485,4.485,0,0,0,3.2-1.149,4.2,4.2,0,0,0,1.231-3.2V23.631a4.626,4.626,0,0,0-1.149-3.2A4.394,4.394,0,0,0,30.676,19.2ZM26.163,33.643a5.58,5.58,0,0,1,0-11.16,5.581,5.581,0,1,1,0,11.16Zm5.826-10.094A1.313,1.313,0,1,1,33.3,22.236,1.3,1.3,0,0,1,31.989,23.549Z" transform="translate(-6.203 -7.634)"/><path class="a" d="M23.7,5.2a20,20,0,1,0,20,20,19.986,19.986,0,0,0-20-20ZM34.35,29.915a6.445,6.445,0,0,1-1.789,4.634,6.327,6.327,0,0,1-4.553,1.707H19.147a6.327,6.327,0,0,1-4.553-1.707,6.125,6.125,0,0,1-1.789-4.634V20.972a6.017,6.017,0,0,1,6.341-6.341H28.09a6,6,0,0,1,6.26,6.341Z" transform="translate(-3.7 -5.2)"/></g></g></svg>