<svg xmlns="http://www.w3.org/2000/svg" xmlns:xlink="http://www.w3.org/1999/xlink" width="79.811" height="94.03" viewBox="0 0 79.811 94.03"><defs><style>.a{clip-path:url(#a);}.b{fill:#001d3d;}</style><clipPath id="a"><rect width="79.811" height="94.03"/></clipPath></defs><g class="a"><path class="b" d="M32.082,41.646a28.209,28.209,0,0,1,2.124-3.72,11.865,11.865,0,0,1,1.748-2,6.581,6.581,0,0,1,.922-.688,3.9,3.9,0,0,1,1.628-.656,2.248,2.248,0,0,1,.431-.032,1.948,1.948,0,0,1,.431.028l.216.028.216.06.431.119a8.98,8.98,0,0,1,3.087,2.11,16.677,16.677,0,0,1,3.092,3.642,18.046,18.046,0,0,0-2.275-3.321,10.957,10.957,0,0,0-3.092-2.55,4.215,4.215,0,0,0-3.092-.381,5.826,5.826,0,0,0-2.615,1.793,14.4,14.4,0,0,0-1.848,2.656,26.258,26.258,0,0,0-1.4,2.917" transform="translate(-7.556 -8.038)"/></g><g class="a"><path class="b" d="M47.712,37.344A18.859,18.859,0,0,1,52.354,47a18.278,18.278,0,0,0-1.147-3.183,18.9,18.9,0,0,0-3.5-6.477" transform="translate(-11.237 -8.795)"/></g><g class="a"><path class="b" d="M40.335,98.414l-.17.532-.183.509-.427,1.06q-.433,1.053-.927,2.05a15.573,15.573,0,0,1-1.105,1.871,5.679,5.679,0,0,1-1.358,1.436,2.019,2.019,0,0,1-1.468.422,2.546,2.546,0,0,1-1.193-.881,8.422,8.422,0,0,1-1.665-3.637,13.779,13.779,0,0,1-.229-4.192,9.273,9.273,0,0,1,.128-1.06c.05-.349.105-.7.183-1.073.142-.729.312-1.463.482-2.2.477-2.179,1.06-4.38,1.541-6.66a32.634,32.634,0,0,0,.771-6.082,27.074,27.074,0,0,0-.527-6.706,24.465,24.465,0,0,0-1-3.261c-.018-.05-.041-.1-.06-.147-.22.949-.592,1.83-.862,2.683a18.665,18.665,0,0,1,.514,2.069,25.812,25.812,0,0,1,.385,4.569,27.323,27.323,0,0,1-.3,4.578c-.445,3.032-1.243,5.99-1.826,8.981a28.416,28.416,0,0,0-.61,4.5,14.748,14.748,0,0,0,.5,4.463c.092.362.234.711.353,1.064.156.339.28.693.468,1.014a7.234,7.234,0,0,0,1.275,1.793,4.093,4.093,0,0,0,.835.665,2.738,2.738,0,0,0,.459.211,1.493,1.493,0,0,0,.482.06,2.872,2.872,0,0,0,1.89-.729,10.257,10.257,0,0,0,2.454-3.642c.307-.683.583-1.39.849-2.1a20.841,20.841,0,0,0,.7-2.142c.738-2.926,1.225-5.949,1.766-8.954-.66,3-1.261,6.041-2.115,8.931" transform="translate(-7.163 -16.581)"/></g><g class="a"><path class="b" d="M32.253,79.464c0,.179-.014.72-.06,1.537a28.809,28.809,0,0,1-.312,3.137,85.043,85.043,0,0,1-2.188,8.733c-.216.789-.422,1.578-.61,2.367s-.362,1.555-.482,2.358a18.293,18.293,0,0,0-.2,4.4,15.635,15.635,0,0,0,.624,3.142c.124.376.243.665.316.862a2.439,2.439,0,0,0,.128.3,8.843,8.843,0,0,0,2.4,3.11,5.032,5.032,0,0,0,1.06.615,3.216,3.216,0,0,0,.706.216,2.625,2.625,0,0,0,.679.055,4.465,4.465,0,0,0,1.252-.156,3.874,3.874,0,0,0,.573-.211,3.377,3.377,0,0,0,.532-.261,8.194,8.194,0,0,0,2.752-2.881,21.818,21.818,0,0,0,1.55-3.11c.216-.518.413-1.037.605-1.546.179-.472.4-1.115.55-1.647.312-1.1.55-2.165.784-3.229.454-2.124.839-4.238,1.238-6.33.161-1.284.312-2.6.523-3.793.225-1.211.541-2.472.867-3.715.67-2.5,1.4-4.99,2.229-7.463-.849,2-1.628,4.009-2.376,6.045a50.179,50.179,0,0,0-1.917,6.156c-.463,2.11-.872,4.252-1.321,6.385-.225,1.069-.454,2.133-.711,3.2a32.189,32.189,0,0,1-.89,3.179,29.487,29.487,0,0,1-2.1,4.844,8.953,8.953,0,0,1-1.638,2.142,3.676,3.676,0,0,1-2.569,1.06,1.991,1.991,0,0,1-.738-.128l-.335-.151a3.353,3.353,0,0,1-.3-.188,5.543,5.543,0,0,1-1.037-.922,8.875,8.875,0,0,1-1.408-2.3,13.583,13.583,0,0,1-1.05-5.206,24.08,24.08,0,0,1,.6-5.243c.344-1.715.752-3.413,1.138-5.105s.738-3.39.954-5.1a30.723,30.723,0,0,0,.174-5.16" transform="translate(-6.677 -17.891)"/></g><g class="a"><path class="b" d="M55.88,55.989A36.2,36.2,0,0,0,54.114,49.9a30,30,0,0,1,1.023,6Z" transform="translate(-12.745 -11.753)"/></g><g class="a"><path class="b" d="M52.493,68.928c-.188.9-.33,1.61-.56,2.5A19.144,19.144,0,0,1,51,74.143c-.385.89-.748,1.789-1.105,2.688-.711,1.8-1.39,3.614-2.018,5.454-.312.922-.615,1.844-.872,2.8s-.45,1.9-.651,2.853c.243-.94.482-1.881.775-2.821s.638-1.844.991-2.748c.706-1.807,1.468-3.587,2.257-5.353.394-.881.8-1.761,1.216-2.624a20.6,20.6,0,0,0,1.087-2.775c.252-.83.45-1.816.661-2.642Z" transform="translate(-10.918 -16.234)"/></g><g class="a"><path class="b" d="M29.15,46.906a36.475,36.475,0,0,1,1.688-4.555,26.189,26.189,0,0,1,2.518-5.142,10.481,10.481,0,0,1,1.867-2.183,4.841,4.841,0,0,1,2.6-1.216,5.022,5.022,0,0,1,2.8.67,9.943,9.943,0,0,1,2.316,1.729,9.874,9.874,0,0,0-2.289-1.83,4.3,4.3,0,0,0-.665-.335c-.115-.05-.229-.105-.344-.151l-.362-.11a3.887,3.887,0,0,0-1.527-.174,5.108,5.108,0,0,0-2.793,1.225,11.092,11.092,0,0,0-2.009,2.22,19.5,19.5,0,0,0-1.124,1.876c-.289.55-.564,1.105-.816,1.674-.55,1.225-1.027,2.477-1.454,3.738-.326,1.2-.605,1.5-.849,2.711Z" transform="translate(-6.762 -7.913)"/></g><g class="a"><path class="b" d="M25.268,57.735a21.586,21.586,0,0,0-1.284-4.078c-.294-.706-.624-1.394-.936-2.092s-.6-1.408-.835-2.133a16.523,16.523,0,0,1-.885-4.5,18.029,18.029,0,0,1,.4-4.573c.459-.174.917-.335,1.371-.482a16.811,16.811,0,0,0-.239,5.463,17.026,17.026,0,0,0,1.647,5.133c.092.229.188.463.289.693l.312.72c.22.5.436,1.014.633,1.537.11.284.216.578.316.872,1.055-4.578,2.541-10.917,3.472-13.5a41.03,41.03,0,0,0,3.312-14.421c-.147-.069-.294-.128-.44-.183l-.431-.119-.216-.06-.216-.028a1.948,1.948,0,0,0-.431-.028,2.275,2.275,0,0,0-.431.032,3.879,3.879,0,0,0-1.628.656,6.581,6.581,0,0,0-.922.688,11.865,11.865,0,0,0-1.748,2,27.642,27.642,0,0,0-2.124,3.72,27.275,27.275,0,0,1,1.4-2.931,14.627,14.627,0,0,1,1.848-2.656,5.9,5.9,0,0,1,2.615-1.793,4.008,4.008,0,0,1,2.729.216v-.216a4.394,4.394,0,0,0-2.059-.33,4.778,4.778,0,0,0-2.6,1.216,10.6,10.6,0,0,0-1.867,2.183A25.935,25.935,0,0,0,23.8,33.892a48.561,48.561,0,0,0-1.413,5.454l-.711.174c.243-1.216.523-2.426.849-3.628.427-1.266.9-2.518,1.454-3.738.252-.564.527-1.124.816-1.674A19.5,19.5,0,0,1,25.924,28.6a11.092,11.092,0,0,1,2.009-2.22,5.108,5.108,0,0,1,2.793-1.225,3.887,3.887,0,0,1,1.527.174l.362.11c.083.032.161.069.239.105a28.71,28.71,0,0,0-.605-5.945C30.057,9.178,24.02,2.477,17.53,1.651,7.531.381,5.856,8.628,5.095,11.825A55.035,55.035,0,0,0,3.939,26.163c.353,3.238,2.624,14.43,1.679,19.925S2.113,61.4,1.627,67.418a10.329,10.329,0,0,0,9.72,11.027c5.518.445,8.976-4.862,10.169-7.1S24.3,61.794,25.066,58.6c.06-.243.124-.537.2-.862" transform="translate(-0.375 -0.358)"/></g><g class="a"><path class="b" d="M38.52,65.548a.389.389,0,0,0-.165-.032h-.133a.272.272,0,0,1-.183-.064.164.164,0,0,0-.115-.1h-.018c-.133,0-.394-.362-.445-.61a4.54,4.54,0,0,1-.032-.514,2.976,2.976,0,0,1,.115-.908c.28-.908.445-1.385.661-1.982.133-.362.28-.826.349-1.023a5.655,5.655,0,0,1,.362-.858c.032-.018.05-.083.064-.147s.147-.413.3-.807a7.831,7.831,0,0,0,.312-.794.7.7,0,0,1,.115-.266c.05-.115.2-.477.312-.826.248-.743.908-2.706,1.092-3.119a3.655,3.655,0,0,0,.183-.578l.248-.775a3.665,3.665,0,0,0,.179-.661.3.3,0,0,1,.216-.312.493.493,0,0,1,.216-.083l.1.032a3.856,3.856,0,0,0,.381.1c.147.018.394.064.546.1a2.125,2.125,0,0,0,.445.064l.761-.032.229.018a1.113,1.113,0,0,0,.312.032l1.156.064a2.854,2.854,0,0,0,.431-.032l.229-.018c.05,0,.083,0,.083.018.018.032.1.032.165.032h.032c.147,0,.445.248.445.381v.018a.738.738,0,0,1-.578.445.106.106,0,0,1-.1-.05c-.032-.083-.165-.133-.33-.133l-.165.018a.612.612,0,0,1-.2.018l-.344-.018a1.3,1.3,0,0,0-.266-.018.55.55,0,0,0-.248.032.54.54,0,0,1-.179.032l-.183-.018a7.478,7.478,0,0,0-1.289.133c-.014,0-.014.032-.014.064l.014.151a30.793,30.793,0,0,1-.972,3.729l-.266.775c0,.018.05.018.147.018a3.976,3.976,0,0,0,.546-.032l.578-.032a2.047,2.047,0,0,1,.362.032l.394.083a.3.3,0,0,1,.229.115l.133.147c.032.018.05.032.05.05s-.032.064-.083.133a.835.835,0,0,1-.6.216.865.865,0,0,1-.229-.032,1.366,1.366,0,0,0-.5-.064,3.359,3.359,0,0,0-.876.115l-.413.083c-.229.693-.381,1.023-.477,1.371l-.794,2.032-.358.963c-.083.3-.2.61-.229.711-.05.1-.147.413-.248.711-.477,1.518-.477,1.55-.972,1.784a1.972,1.972,0,0,1-.413.165c-.037,0-.05-.018-.083-.05" transform="translate(-8.815 -12.033)"/></g><g class="a"><path class="b" d="M47.491,65.583a1.255,1.255,0,0,0-.3-.05.3.3,0,0,1-.261-.147.3.3,0,0,0-.216-.147,2.21,2.21,0,0,1-.693-.775c-.032-.083-.083-.147-.115-.147s-.064-.05-.064-.115-.018-.115-.032-.115a3.461,3.461,0,0,1-.3-1.073,5.449,5.449,0,0,1,.018-1.78,13.61,13.61,0,0,1,.642-1.651,1.07,1.07,0,0,0,.133-.362.43.43,0,0,1,.115-.183,2.77,2.77,0,0,0,.431-.711,1.177,1.177,0,0,1,.2-.312.165.165,0,0,0,.083-.133.046.046,0,0,0-.05-.05h-.064a.149.149,0,0,1-.115-.05.105.105,0,0,1-.032-.083.285.285,0,0,1,.083-.179,1.084,1.084,0,0,1,.3-.28c.083-.05.165-.133.165-.165,0-.05.083-.115.183-.147a2.289,2.289,0,0,1,.922-.216,1.567,1.567,0,0,1,.679.147,2.245,2.245,0,0,0,.381.133,3.218,3.218,0,0,1,.972.546c.463.413.61.6.679.839a1.453,1.453,0,0,0,.115.316l.183.413a2.3,2.3,0,0,1,.133.927c0,.527-.014.6-.165.858a.622.622,0,0,0-.115.216l.018.018.018-.018.1-.05a3.628,3.628,0,0,1-.546,1.023,4.705,4.705,0,0,0-.61,1.009,3.7,3.7,0,0,1-.413.527,1.528,1.528,0,0,0-.349.5,2.049,2.049,0,0,1-.381.477,1.481,1.481,0,0,0-.362.431c0,.133-.1.248-.413.445a1.1,1.1,0,0,1-.61.2,1.449,1.449,0,0,1-.349-.078m.991-2.362a4.045,4.045,0,0,0,.477-.546,1.32,1.32,0,0,1,.3-.349,2.838,2.838,0,0,0,.431-.6,1.1,1.1,0,0,1,.2-.3,1.432,1.432,0,0,0,.229-.349,2.9,2.9,0,0,1,.248-.344.106.106,0,0,0,.05-.1.942.942,0,0,1,.147-.266c.165-.183.165-.216.165-.743-.018-.477-.032-.578-.133-.693a1.558,1.558,0,0,1-.248-.381.772.772,0,0,0-.5-.4c-.032,0-.064,0-.083.032a.428.428,0,0,0-.05.216,1.331,1.331,0,0,1-.381.761,4.72,4.72,0,0,0-.463.794c-.147.312-.3.642-.349.725a1.068,1.068,0,0,0-.083.413.6.6,0,0,1-.05.3,8.864,8.864,0,0,0-.56,1.321,2.878,2.878,0,0,0-.1.794c0,.165.018.28.05.3h.032c.092.009.206-.105.67-.587" transform="translate(-10.705 -13.357)"/></g><g class="a"><path class="b" d="M54.1,66.081c-.083-.018-.147-.032-.165-.064a1.844,1.844,0,0,0-.477-.3c-.1-.032-.28-.33-.56-.972a1.139,1.139,0,0,1-.133-.477l.018-.179a7.227,7.227,0,0,1,.527-1.587c.1-.248.248-.674.349-.959a9.726,9.726,0,0,1,.33-.94c.115-.248.229-.527.266-.642a10.963,10.963,0,0,1,.546-1.3l.147-.33c.018-.115.05-.147.115-.147l.083.018a1.75,1.75,0,0,1,.693.2c0,.032.1.05.229.05.216,0,.266.05.431.229a2.07,2.07,0,0,1,.431.972,1.363,1.363,0,0,1-.1.312,1.777,1.777,0,0,0-.2.477l-.362.94a5.511,5.511,0,0,0-.394,1.238l-.032.165c0,.05.032.064.083.064.147,0,.216-.064.312-.229l.165-.248a.787.787,0,0,1,.179-.216.235.235,0,0,0,.1-.133,14.633,14.633,0,0,1,1.105-1.468.241.241,0,0,0,.083-.2,2.041,2.041,0,0,1,.711-.775,1.331,1.331,0,0,0,.3-.115,1.756,1.756,0,0,1,.527-.147L59.6,59.3c.133,0,.165.032.248.133a.554.554,0,0,0,.381.183c.165.018.316.064.33.115a2.16,2.16,0,0,0,.28.344c.183.2.216.248.216.445v.147a3.016,3.016,0,0,1-.2.794,1.524,1.524,0,0,0-.147.61l.018.216c0,.1-.05.147-.165.229a.627.627,0,0,1-.394.115.716.716,0,0,1-.527-.2.486.486,0,0,0-.312-.133.183.183,0,0,1-.183-.133,1.588,1.588,0,0,0-.133-.312,2.089,2.089,0,0,1-.349-1.041v-.032c0-.165-.032-.266-.1-.266-.032,0-.083.032-.151.115l-.3.3a2.831,2.831,0,0,0-.431.56,11.894,11.894,0,0,1-1,1.371l-.2.229c-.032.069-.147.216-.229.349a1.132,1.132,0,0,0-.147.248l-.28.33c-.147.165-.28.316-.3.349a2.051,2.051,0,0,1-.349.5c-.064,0-.229.394-.312.693a1.818,1.818,0,0,1-.147.381.279.279,0,0,1-.28.2Z" transform="translate(-12.429 -13.703)"/></g><g class="a"><path class="b" d="M64.491,66.222a2.281,2.281,0,0,0-.312-.1.983.983,0,0,1-.661-.642,3.311,3.311,0,0,1-.147-1.124,3.862,3.862,0,0,1,.115-1.041l.133-.6a1.87,1.87,0,0,1,.147-.546,1.081,1.081,0,0,0,.069-.216v-.018a15.123,15.123,0,0,1,.463-1.683l.151-.546a5.81,5.81,0,0,1,.229-.693c.115-.349.229-.642.229-.693a.942.942,0,0,1,.147-.266c.1-.133.165-.2.248-.2h.018a.322.322,0,0,0,.183-.032l.064-.018.312.064.2-.018a.476.476,0,0,1,.165.032.2.2,0,0,0,.1.018.251.251,0,0,0,.115-.018.169.169,0,0,1,.1-.032c.014,0,.032,0,.032.032a.122.122,0,0,0,.083.032h.05c.1,0,.229.083.5.3a.755.755,0,0,1,.133.349.982.982,0,0,1,.032.216.563.563,0,0,1-.064.266,1.864,1.864,0,0,0-.115.477,1.949,1.949,0,0,1-.1.527.938.938,0,0,0-.083.33v.032c0,.05-.018.133-.05.147a.237.237,0,0,0-.05.147v.018a.955.955,0,0,1-.083.312c-.083.28-.362,1.257-.431,1.55l-.165.61a2.756,2.756,0,0,0-.1.527c0,.064.018.083.032.083H66.2c.032,0,.1-.115.147-.229a.631.631,0,0,1,.133-.229,5.991,5.991,0,0,0,.445-.711,4.389,4.389,0,0,1,.5-.711.138.138,0,0,0,.032-.1.976.976,0,0,1,.1-.229,6.123,6.123,0,0,0,.33-.61,6.5,6.5,0,0,1,.381-.661.723.723,0,0,0,.147-.248.689.689,0,0,1,.115-.2.3.3,0,0,1,.28-.147.477.477,0,0,0,.344-.2,3.253,3.253,0,0,1,1.486-.661l.427-.032.147.018.115-.018a1.248,1.248,0,0,1,.312-.05.55.55,0,0,1,.413.165.579.579,0,0,1,.266.5,2.251,2.251,0,0,1-.1.564l-.133.592v.018a1.928,1.928,0,0,1-.147.477c-.083.229-.183.477-.2.56a1.509,1.509,0,0,1-.165.445,1.751,1.751,0,0,0-.133.362v.014a2.111,2.111,0,0,1-.115.381,2.777,2.777,0,0,0-.115.362,2.913,2.913,0,0,1-.183.427,1.658,1.658,0,0,0-.133.445v.032c0,.018.018.018.032.018.05,0,.147-.115.394-.427a19.849,19.849,0,0,0,1.734-2.376v-.018a1.938,1.938,0,0,1,.229-.413c.133-.183.248-.381.28-.431a.363.363,0,0,1,.216-.115.675.675,0,0,0,.312-.248,3.018,3.018,0,0,1,.2-.234,1.755,1.755,0,0,0,.312-.349c.3-.413.349-.427,1.321-.592a2.28,2.28,0,0,1,.362-.018,1.227,1.227,0,0,1,.642.115,1.25,1.25,0,0,1,.147.3.76.76,0,0,1,.05.266,2.234,2.234,0,0,1-.064.445,5.7,5.7,0,0,1-.216.725,2.952,2.952,0,0,0-.115.477,7.719,7.719,0,0,1-.229.826c-.1.33-.229.757-.266.927l-.216.757a2.81,2.81,0,0,0-.133.514c0,.064.018.083.064.083h.018c.05-.018.083-.032.083-.064v-.018c0-.032.032-.064.083-.083a2.71,2.71,0,0,0,.413-.463,11.152,11.152,0,0,1,1.174-1.353,2.811,2.811,0,0,0,.463-.546l.394-.546a1.7,1.7,0,0,1,.018.312.659.659,0,0,1-.083.312,7.289,7.289,0,0,1-.642.844,10.212,10.212,0,0,0-1.257,1.5.707.707,0,0,1-.248.229c-.05.018-.1.032-.115.064a.975.975,0,0,1-.216.261.784.784,0,0,0-.2.28v.018c0,.05-.083.147-.183.229a.853.853,0,0,0-.216.248c-.032.1-.578.248-.876.248l-.1-.018a1.774,1.774,0,0,1-.33-.133,2.647,2.647,0,0,1-.661-.711c-.014-.064-.05-.115-.083-.115h-.018c-.064,0-.1-.248-.1-.514a2.05,2.05,0,0,1,.1-.725.689.689,0,0,0,.069-.266,5.681,5.681,0,0,1,.349-1.188,4.4,4.4,0,0,0,.3-1.092c0-.05-.018-.083-.05-.083s-.133.1-.248.312c-.165.3-.94,1.4-1.188,1.7A8.325,8.325,0,0,0,71.555,64.5a3.293,3.293,0,0,1-.761,1.041h-.018a.336.336,0,0,1-.183-.1l-.115-.133c-.133.2-.216.248-.216.349l.032.1c0,.018-.014.018-.032.018l-.61.018L69.4,65.8c-.115,0-.183-.018-.183-.032,0-.032-.083-.064-.165-.064h-.064c-.147,0-.266-.064-.5-.28-.2-.165-.216-.216-.248-.578l-.018-.248a5.907,5.907,0,0,1,.248-1.257c.083-.33.578-1.752.725-2.128a.5.5,0,0,0,.05-.2V61a.3.3,0,0,1,.083-.2.6.6,0,0,0,.147-.33c0-.032-.018-.05-.032-.05a2.838,2.838,0,0,0-.514.761.749.749,0,0,1-.216.28,1.327,1.327,0,0,0-.3.394A17.966,17.966,0,0,1,67.3,63.612a4.782,4.782,0,0,0-.33.546l-.115.2a3.07,3.07,0,0,0-.248.431c-.165.312-.28.514-.33.514-.018,0-.018-.018-.018-.032V65.25a1.7,1.7,0,0,1,.28-.56.577.577,0,0,0,.115-.216c0-.032-.014-.032-.032-.032s-.115.1-.216.261a6.071,6.071,0,0,1-.431.61,2.891,2.891,0,0,0-.33.56l-.05.2a7.414,7.414,0,0,1-1.023.133c-.009.037-.06.037-.078.018" transform="translate(-14.926 -13.616)"/></g><g class="a"><path class="b" d="M56.342,82.818c-.069-.018-.349-.032-.628-.05-.445,0-.514,0-.642-.115-.1-.05-.28-.183-.445-.266-.147-.1-.248-.216-.28-.229a1.881,1.881,0,0,1-.628-1.271l-.018-.165a4.51,4.51,0,0,1,1.321-2.491H55.1c.083,0,.1.018.1.064v.032c0,.032.018.064.032.064a4.937,4.937,0,0,0-1.174,2.28v.147a1.348,1.348,0,0,0,.032.413,1.612,1.612,0,0,1,.133.28,1.257,1.257,0,0,0,.261.33.478.478,0,0,0,.381.115h.266a1.525,1.525,0,0,0,.807-.183,2.95,2.95,0,0,0,1.321-1.454,1.683,1.683,0,0,0,.216-.89l.018-.349a4.582,4.582,0,0,0-.133-.991,5.9,5.9,0,0,1-.115-.959v-.115a6.286,6.286,0,0,1,.463-1.633.746.746,0,0,0,.1-.147c0-.1.431-.431.578-.463a6.519,6.519,0,0,1,1.009-.115,1.666,1.666,0,0,1,.628.147.912.912,0,0,1,.61.761,2.083,2.083,0,0,0,.083.381.466.466,0,0,1,.05.2,2.485,2.485,0,0,1-.1.394c-.032.1-.069.115-.216.115H60.3l.018-.514a1.111,1.111,0,0,0-.2-.757.3.3,0,0,1-.1-.165.058.058,0,0,0-.064-.064.444.444,0,0,0-.266.115.621.621,0,0,0-.266.477l.032.3a7.707,7.707,0,0,0-.115,1.587c0,.312.018.6.032.725a8.936,8.936,0,0,1,.28,1.881,2.243,2.243,0,0,1-.032.362l-.133.5a1.9,1.9,0,0,1-.578.89,2.534,2.534,0,0,1-.908.628,1.621,1.621,0,0,1-.661.183l-.725.032a.789.789,0,0,1-.271-.009" transform="translate(-12.648 -17.584)"/></g><g class="a"><path class="b" d="M64.94,83.379a1.123,1.123,0,0,1-.477-.133,1.444,1.444,0,0,1-.427-.3.2.2,0,0,0-.147-.115c-.1,0-.349-.381-.725-1.124a3.184,3.184,0,0,1-.349-1.009c-.014-.147-.032-.33-.032-.509a4.93,4.93,0,0,1,.33-1.8,7.544,7.544,0,0,1,.693-1.4.263.263,0,0,0,.1-.165.364.364,0,0,1,.083-.115,1.286,1.286,0,0,0,.183-.261,4.2,4.2,0,0,1,.61-.711c.394-.394.5-.5.61-.5l.179.032c.032,0,.05-.018.05-.032l-.032-.1c0-.1.115-.147.349-.147l.266.018a3.916,3.916,0,0,1,1.3.266.253.253,0,0,0,.165.05c.05,0,.165.1.28.2a.978.978,0,0,1,.248.546,4.617,4.617,0,0,1,.05.711,1.258,1.258,0,0,1-.05.463,1.349,1.349,0,0,0-.216.248c-.083.1-.165.183-.2.183h-.018a1.409,1.409,0,0,1-.05-.445c0-.427-.133-.908-.266-.908a.445.445,0,0,0-.2.183,2.387,2.387,0,0,1-.28.312.384.384,0,0,0-.115.183,2.055,2.055,0,0,1-.2.312,1.517,1.517,0,0,0-.266.477,3.633,3.633,0,0,1-.5.959,1.475,1.475,0,0,0-.312.628.058.058,0,0,1-.05.064,4.892,4.892,0,0,0-.28.527,2.5,2.5,0,0,0-.312,1.073c-.032.381-.05.642-.05.826,0,.248.032.349.083.349.147,0,.33-.115.642-.413a5.054,5.054,0,0,1,.922-.711,1.074,1.074,0,0,0,.261-.2,2.124,2.124,0,0,1,.477-.381c.33-.216,2.115-1.619,2.293-1.784a.525.525,0,0,1,.229-.115.058.058,0,0,0,.064-.05c0-.032.083-.1.165-.147a.169.169,0,0,1,.1-.032l.083.018h.073c.133,0,.2.064.2.133a.165.165,0,0,1-.083.133c-.064.032-.362.261-.362.312a.5.5,0,0,1-.165.2c-.1.064-.183.147-.183.183a21.143,21.143,0,0,1-1.848,1.83,9.04,9.04,0,0,0-.725.725,1.78,1.78,0,0,1-.3.312c0,.064-.147.1-.229.183-.33.362-.431.216-.477.362-.083.33-.445.546-1.055.61H64.94Z" transform="translate(-14.787 -17.663)"/></g><g class="a"><path class="b" d="M75.511,82.642c-.147-.248-.147-.56-.2-1.867,0-.807.381-1.569,1.174-3.449v-.018c0-.014-.032-.032-.05-.032-.1,0-.628.642-.661.642-.133,0-.3.216-.66.56a1.84,1.84,0,0,0-.431.445,13.528,13.528,0,0,0-1.289,1.7c-.183.381-.3.33-.362.679l-.165.527c-.064.266-.133.477-.991.546a.746.746,0,0,1-.527-.229.955.955,0,0,1-.477-.959l-.014-.362a6.976,6.976,0,0,1,.509-1.9,7.463,7.463,0,0,1,.527-1.518V77.39c0-.165.876-2.211.876-2.261,0-.032.362-.725.445-.972.069-.216.381-.775.445-.991a5.228,5.228,0,0,1,.413-.94,1.976,1.976,0,0,0,.165-.642l-.018-.477h.248c.381,0,.743.413.927.413s.693.61.693,1.206a3.975,3.975,0,0,1-.362,1.422,6.3,6.3,0,0,0-.3,1.041,13.267,13.267,0,0,1-.661,1.7,10.7,10.7,0,0,0-.431,1.073,2.053,2.053,0,0,0-.216.61c0,.032,0,.05.018.05.05,0,.28-.349.394-.349a.855.855,0,0,0,.349-.248l1.289-1.238c.266-.266.362-.229.477-.4a.513.513,0,0,1,.381-.2c.1,0,.133.115.3.115.083,0,.147.032.147.083,0,.1.216.229.362.229h.083c.33,0,.876.794.876,1.206,0,.349-.349.826-.349.94a3.741,3.741,0,0,1-.349.94c-.115.183-.5,1.124-.628,1.289a1.044,1.044,0,0,0-.133.229v.018c0,.032-.1.133-.183.229-.445.362-.61.56-.642.679-.05.183-.28.413-.381.413h-.05c-.216,0-.248.5-.381.5-.073,0-.073-.151-.188-.417" transform="translate(-16.689 -16.747)"/></g><g class="a"><path class="b" d="M84,81.059a1.255,1.255,0,0,0-.3-.05.3.3,0,0,1-.261-.147.3.3,0,0,0-.216-.147,2.167,2.167,0,0,1-.693-.775c-.032-.083-.083-.147-.115-.147s-.064-.05-.064-.115-.018-.115-.032-.115a3.46,3.46,0,0,1-.3-1.073,4.357,4.357,0,0,1-.064-.858,4.415,4.415,0,0,1,.083-.927,13.611,13.611,0,0,1,.642-1.651,1.07,1.07,0,0,0,.133-.362.43.43,0,0,1,.115-.183,2.91,2.91,0,0,0,.427-.711,1.422,1.422,0,0,1,.2-.312.165.165,0,0,0,.083-.133.046.046,0,0,0-.05-.05h-.064a.149.149,0,0,1-.115-.05.111.111,0,0,1-.032-.083.294.294,0,0,1,.083-.183,1.084,1.084,0,0,1,.3-.28c.083-.05.165-.133.165-.165,0-.05.083-.115.179-.147a2.292,2.292,0,0,1,.927-.216,1.532,1.532,0,0,1,.674.147,2.245,2.245,0,0,0,.381.133,3.218,3.218,0,0,1,.972.546c.463.413.61.6.679.839a1.542,1.542,0,0,0,.115.312l.183.413a2.375,2.375,0,0,1,.133.922,1.3,1.3,0,0,1-.165.858.622.622,0,0,0-.115.216l.018.018.018-.018.1-.05a3.628,3.628,0,0,1-.546,1.023,4.706,4.706,0,0,0-.61,1.009,3.973,3.973,0,0,1-.413.527,1.528,1.528,0,0,0-.349.5,2.049,2.049,0,0,1-.381.477,1.481,1.481,0,0,0-.362.431c0,.133-.1.248-.413.445a1.1,1.1,0,0,1-.61.2.886.886,0,0,1-.335-.06m0-9.742c-.427-.083-.546-.115-.775-.394a1.454,1.454,0,0,0-.362-.261l-.05-.05.018-.1c0-.115-.083-.248-.248-.445-.083-.1-.133-.133-.133-.216l.064-.229a1.4,1.4,0,0,0,.032-.349l.115-.312a.806.806,0,0,0,.115-.312,2.576,2.576,0,0,1,.115-.445c.083-.229.133-.312.229-.312l.642.2c.165.032.229.083.229.115,0,.083.05.083.165.083l.147-.032.05.032c0,.032.115.115.229.165.28.151.362.229.679.711l.2.312-.229.794c0,.147-.05.312-.083.312-.05,0-.05.083-.05.147a.4.4,0,0,1-.064.2l-.133.28c-.032.115-.064.165-.2.165a.371.371,0,0,1-.229-.083c-.018-.032-.05-.064-.064-.064-.032,0-.05.032-.05.1a.091.091,0,0,1-.1.083Zm.991,7.38a4.045,4.045,0,0,0,.477-.546,1.32,1.32,0,0,1,.3-.349,2.787,2.787,0,0,0,.427-.592,1.1,1.1,0,0,1,.2-.3,1.433,1.433,0,0,0,.229-.349,3.167,3.167,0,0,1,.248-.349.1.1,0,0,0,.05-.1.884.884,0,0,1,.147-.266c.165-.183.165-.216.165-.743-.018-.477-.032-.578-.133-.693a1.516,1.516,0,0,1-.248-.381.762.762,0,0,0-.5-.394c-.032,0-.069,0-.083.032a.428.428,0,0,0-.05.216,1.331,1.331,0,0,1-.381.761,4.72,4.72,0,0,0-.463.794c-.147.312-.3.642-.349.725a1.068,1.068,0,0,0-.083.413.6.6,0,0,1-.05.3,8.651,8.651,0,0,0-.56,1.321,2.878,2.878,0,0,0-.1.794c0,.165.018.28.05.3h.032c.1,0,.211-.115.674-.6m2.725-7.38c-.431-.083-.546-.115-.775-.394a1.454,1.454,0,0,0-.362-.261l-.05-.05.018-.1c0-.115-.083-.248-.248-.445-.083-.1-.133-.133-.133-.216l.064-.229a1.4,1.4,0,0,0,.032-.349l.115-.312a.805.805,0,0,0,.115-.312,2.576,2.576,0,0,1,.115-.445c.083-.229.133-.312.229-.312l.642.2c.165.032.229.083.229.115,0,.083.05.083.165.083l.147-.032.05.032c0,.032.115.115.229.165.28.151.362.229.679.711l.2.312-.229.794c0,.147-.05.312-.083.312-.05,0-.05.083-.05.147a.4.4,0,0,1-.064.2l-.133.28c-.032.115-.064.165-.2.165a.371.371,0,0,1-.229-.083c-.018-.032-.05-.064-.069-.064s-.05.032-.05.1a.093.093,0,0,1-.1.083Z" transform="translate(-19.304 -15.99)"/></g><g class="a"><path class="b" d="M91.079,82.7a2.184,2.184,0,0,0-.431-.069,1.5,1.5,0,0,1-1.289-.876.787.787,0,0,1-.133-.463l.018-.28a2.789,2.789,0,0,1,.147-.743,6.525,6.525,0,0,0,.2-.642c.064-.2.133-.431.165-.5a4.563,4.563,0,0,0,.2-.56l.413-1.124c.147-.349.312-.775.362-.908l.312-.876a5.245,5.245,0,0,0,.248-.693.117.117,0,0,1,.064-.115c.032,0,.069-.064.069-.147a.3.3,0,0,1,.064-.179.765.765,0,0,0,.165-.248c.133-.3.3-.477.427-.477a.154.154,0,0,1,.133.1.184.184,0,0,0,.151.1h.018a.414.414,0,0,1,.216.115.294.294,0,0,0,.2.1l.248-.032.064.018a.266.266,0,0,0,.147.032h.018a1.4,1.4,0,0,1,.679.61l.032.165a1.046,1.046,0,0,1-.183.546,1.892,1.892,0,0,0-.165.477,2.812,2.812,0,0,1-.183.509c-.083.147-.628,1.587-.628,1.67a1.129,1.129,0,0,1-.133.312,23.9,23.9,0,0,0-.876,2.692v.032c0,.018,0,.018.018.018l.1-.05a.46.46,0,0,0,.147-.2c.05-.133,1.041-1.6,1.22-1.8a.4.4,0,0,0,.115-.216.17.17,0,0,1,.1-.115.264.264,0,0,0,.1-.1,3.349,3.349,0,0,1,.431-.642,1.619,1.619,0,0,0,.2-.312,3.963,3.963,0,0,1,.445-.61,2.065,2.065,0,0,0,.3-.413,6.359,6.359,0,0,1,.679-.775c.628-.66.693-.711.89-.743a.6.6,0,0,1,.3.05.829.829,0,0,0,.445.083l.381-.018c.069,0,.115.018.133.05a.114.114,0,0,0,.1.064h.05c.115,0,.28.147.427.413a.78.78,0,0,1,.115.413,5.879,5.879,0,0,1-.56,1.849,6.21,6.21,0,0,0-.3.807l-.1.248a2.286,2.286,0,0,0-.28.693v.018a1.827,1.827,0,0,0,.413-.312c.2-.183,1.156-.94,1.238-1.009.216-.147.527-.431.61-.463a2.416,2.416,0,0,0,.3-.165l.05-.018a.218.218,0,0,1,.2.165v.018c-.018.032-.05.083-.083.083s-.546.6-.761.826c-.229.248-1.257,1.105-1.371,1.238-.133.133-.3.33-.394.445a5.225,5.225,0,0,1-.761.775c-.032,0-.1.064-.147.147-.05.1-.1.165-.133.165s-.064.083-.115.165a.859.859,0,0,1-.775.477.526.526,0,0,1-.229-.032l-.381-.133a1.314,1.314,0,0,1-.628-.826,1.95,1.95,0,0,1-.064-.578,3.377,3.377,0,0,1,.248-1.289,2.8,2.8,0,0,1,.261-.477A.359.359,0,0,0,94.813,79a2.424,2.424,0,0,1,.165-.362c.083-.165.165-.362.2-.445.032-.1.064-.165.1-.183.032,0,.05-.05.05-.115a3.926,3.926,0,0,1,.229-.5,2.586,2.586,0,0,0,.28-.858c0-.032,0-.064-.032-.064a1.429,1.429,0,0,0-.394.477v.032c0,.032-.032.05-.083.083a8.451,8.451,0,0,0-1.321,1.784c-.3.5-.628.991-.711,1.092a3.8,3.8,0,0,0-.33.477,2.053,2.053,0,0,1-.248.362.243.243,0,0,0-.083.133,3.351,3.351,0,0,1-.28.431,6,6,0,0,0-.362.527c-.216.362-.711.844-.89.844Z" transform="translate(-21.015 -17.383)"/></g></svg>