<svg xmlns="http://www.w3.org/2000/svg" width="40" height="40" viewBox="0 0 40 40"><defs><style>.a{fill:#a27035;}</style></defs><path class="a" d="M20,0A20,20,0,1,0,40,20,20,20,0,0,0,20,0ZM31.762,25.088c-.14.329-.775.795-2.992,1.137-.181.028-.251.264-.36.759-.039.18-.079.358-.134.544a.3.3,0,0,1-.318.238h-.028a2.8,2.8,0,0,1-.5-.063,6.594,6.594,0,0,0-1.333-.141,5.916,5.916,0,0,0-.961.081,4.623,4.623,0,0,0-1.829.933,5.161,5.161,0,0,1-3.165,1.249c-.061,0-.12,0-.18-.005h0c-.037,0-.077.005-.118.005a5.16,5.16,0,0,1-3.162-1.247,4.607,4.607,0,0,0-1.83-.934,5.916,5.916,0,0,0-.961-.081,6.653,6.653,0,0,0-1.333.15,2.9,2.9,0,0,1-.5.071.312.312,0,0,1-.345-.246c-.055-.189-.1-.37-.134-.548-.1-.454-.17-.733-.36-.762-2.217-.342-2.851-.809-2.993-1.141a.423.423,0,0,1-.034-.141.248.248,0,0,1,.209-.26c3.407-.561,4.936-4.045,5-4.193a.13.13,0,0,0,0-.013,1.293,1.293,0,0,0,.121-1.09c-.234-.551-1-.794-1.5-.954-.124-.039-.241-.076-.333-.113-1.007-.4-1.091-.808-1.051-1.015a.952.952,0,0,1,.926-.6.656.656,0,0,1,.276.055,2.933,2.933,0,0,0,1.214.32,1,1,0,0,0,.725-.231q-.019-.347-.044-.72c-.1-1.611-.227-3.614.283-4.756a6.165,6.165,0,0,1,5.724-3.691l.419,0h.056a6.174,6.174,0,0,1,5.734,3.694c.51,1.144.384,3.148.282,4.757l0,.07c-.014.224-.028.442-.039.651a.971.971,0,0,0,.661.23h0a3.041,3.041,0,0,0,1.144-.317.866.866,0,0,1,.355-.07,1.087,1.087,0,0,1,.409.078l.008,0a.751.751,0,0,1,.571.613c.005.236-.176.591-1.06.94-.091.036-.209.074-.333.112-.505.16-1.268.4-1.5.954a1.3,1.3,0,0,0,.121,1.09.116.116,0,0,0,.006.013c.064.147,1.59,3.63,5,4.191a.249.249,0,0,1,.209.26A.393.393,0,0,1,31.762,25.088Z"/></svg>