<svg xmlns="http://www.w3.org/2000/svg" width="40" height="40" viewBox="0 0 40 40"><defs><style>.a{fill:#a27035;}</style></defs><g transform="translate(23.897 0.897)"><g transform="translate(-23.897 -0.897)"><path class="a" d="M20,0A20,20,0,1,1,0,20,20.009,20.009,0,0,1,20,0ZM31.978,13.983a3.131,3.131,0,0,0-2.21-2.21C27.818,11.25,20,11.25,20,11.25s-7.818,0-9.768.523a3.131,3.131,0,0,0-2.21,2.21A32.543,32.543,0,0,0,7.5,20a32.54,32.54,0,0,0,.522,6.017,3.131,3.131,0,0,0,2.21,2.21c1.95.522,9.768.522,9.768.522s7.818,0,9.768-.522a3.131,3.131,0,0,0,2.21-2.21A32.54,32.54,0,0,0,32.5,20a32.543,32.543,0,0,0-.522-6.017ZM17.5,23.75v-7.5l6.5,3.75Z" transform="translate(0 0)"/></g></g></svg>